<svg id="Layer_1" data-name="Layer 1" xmlns="http://www.w3.org/2000/svg" viewBox="0 0 122.5 113"><defs><style>.cls-1{fill:#add9f4;}</style></defs><title>umbrella-29-29</title><polygon class="cls-1" points="44.56 86.56 58.67 64.98 55.35 62.76 41.24 84.34 44.56 86.56"/><path class="cls-1" d="M79.61,34.26L81.85,31l-3.1-2.12-2.19,3.2a38.57,38.57,0,0,0-48.24,5.18,11.58,11.58,0,0,1,8.3,2.06c3.87,2.71,5.65,7.17,4.75,11l0.12-.05A10.86,10.86,0,0,1,53.37,51a12.41,12.41,0,0,1,1.2,1l0.25,0.22a12.06,12.06,0,0,1,1,1.06L56,53.5a11.65,11.65,0,0,1,.72,1l0.16,0.25A11.2,11.2,0,0,1,57.45,56l0.14,0.33A10.68,10.68,0,0,1,58,57.43l0,0.16h0A9.44,9.44,0,0,1,58.14,62l-0.07.1,0.06,0,0.07-.1a9.44,9.44,0,0,1,4.19-1.41h0.16a10.67,10.67,0,0,1,1.21,0h0.36a11.21,11.21,0,0,1,1.33.16l0.28,0.06a11.64,11.64,0,0,1,1.21.33l0.25,0.08a12.07,12.07,0,0,1,1.33.57L68.81,62a12.4,12.4,0,0,1,1.32.8,10.86,10.86,0,0,1,4.78,10.91v0.14c3.32-2.16,8.12-2,12,.69a11.88,11.88,0,0,1,4.18,5.15A38.57,38.57,0,0,0,79.61,34.26Z"/></svg>