<svg id="Layer_1" data-name="Layer 1" xmlns="http://www.w3.org/2000/svg" viewBox="0 0 122.5 113"><defs><style>.cls-1{fill:#add9f4;}</style></defs><title>umbrella</title><path class="cls-1" d="M92.2,55.88A31,31,0,0,0,64.6,25.11c4.6,1.78,8.15,7.36,10.34,16.43a90.6,90.6,0,0,1,2.23,16.82v2.21A7.73,7.73,0,0,0,92.2,58a7.81,7.81,0,0,0,0-.84C92.17,56.74,92.2,56.31,92.2,55.88Z"/><path class="cls-1" d="M61.72,25.43V60.63a7.75,7.75,0,0,0,1.87,2.91h0l0.09,0.08a7.76,7.76,0,0,0,.7.58l0.21,0.16a7.7,7.7,0,0,0,.84.51L65.63,65a7.65,7.65,0,0,0,.84.35l0.18,0.06a7.65,7.65,0,0,0,1,.24l0.24,0a7.64,7.64,0,0,0,8.35-5V58.38C76.23,58.06,75.34,26.16,61.72,25.43Z"/><path class="cls-1" d="M30.3,55.88A31,31,0,0,1,57.9,25.11c-4.6,1.78-8.15,7.36-10.34,16.43a90.6,90.6,0,0,0-2.23,16.82v2.21A7.73,7.73,0,0,1,30.3,58a7.81,7.81,0,0,1,0-.84C30.33,56.74,30.3,56.31,30.3,55.88Z"/><path class="cls-1" d="M60.78,25.43V60.63a7.75,7.75,0,0,1-1.87,2.91h0l-0.09.08a7.76,7.76,0,0,1-.7.58l-0.21.16a7.7,7.7,0,0,1-.84.51L56.87,65a7.65,7.65,0,0,1-.84.35l-0.18.06a7.65,7.65,0,0,1-1,.24l-0.24,0a7.64,7.64,0,0,1-8.35-5V58.38C46.27,58.06,47.16,26.16,60.78,25.43Z"/><path class="cls-1" d="M61.25,62.83c-0.16,0-1.51,2.23-2.34,3V78.66c0,0.46-.21,4.55-5.39,4.55a2.34,2.34,0,0,0,0,4.67c8.16,0,10-6.61,10.07-9.19V65.88C62.76,65.07,61.41,62.83,61.25,62.83Z"/></svg>