<svg id="Layer_1" data-name="Layer 1" xmlns="http://www.w3.org/2000/svg" viewBox="0 0 122.5 113"><defs><style>.cls-1{fill:#add9f4;}</style></defs><title>weather</title><path class="cls-1" d="M40.36,58.92a2.6,2.6,0,0,1-2.63-2.24,2.5,2.5,0,0,1,2.49-2.76H85.69a5,5,0,0,0,4.87-6.5l0-.1a6,6,0,0,0-11.57,2,2.5,2.5,0,1,1-5,.05,11,11,0,0,1,21.53-2.9q0.1,0.39.18,0.79c1.13,6.13-3.9,11.7-10.13,11.7H40.36Z"/><path class="cls-1" d="M29.31,63.42a2.6,2.6,0,0,0-2.63,2.24,2.5,2.5,0,0,0,2.49,2.76H74.65a5,5,0,0,1,4.87,6.5l0,0.1a6,6,0,0,1-11.57-2,2.5,2.5,0,1,0-5-.05,11,11,0,0,0,21.53,2.9q0.1-.39.18-0.79c1.13-6.13-3.9-11.7-10.13-11.7H29.31Z"/></svg>