<svg id="Layer_1" data-name="Layer 1" xmlns="http://www.w3.org/2000/svg" viewBox="0 0 122.5 113"><defs><style>.cls-1{fill:#dfeaf7;opacity:0.54;}.cls-2{fill:#bdcddb;}.cls-3{fill:#add9f4;}</style></defs><title>weather</title><circle class="cls-1" cx="61.25" cy="56.5" r="45"/><circle class="cls-2" cx="61.25" cy="56.5" r="35"/><path class="cls-3" d="M62.76,53.5l1.54-.12-0.12,1.54L65,55.78l21.43-1.94-3-3L67.71,52l8.54-8.54-2-2L65.71,50l1.2-15.7-3.07-3.07L61.91,52.65Zm2.94-1.37H65.55V52Z"/><polygon class="cls-3" points="59.51 59.73 57.96 59.85 58.08 58.3 57.23 57.45 35.79 59.39 38.86 62.46 54.56 61.26 46.11 69.71 48.11 71.71 56.56 63.25 55.38 78.97 58.42 82.02 60.36 60.59 59.51 59.73"/><polygon class="cls-3" points="64.42 58.06 64.53 59.6 62.99 59.48 62.14 60.34 64.08 81.77 67.15 78.7 65.94 63 74.39 71.45 76.39 69.46 67.94 61 83.66 62.19 86.71 59.14 65.28 57.2 64.42 58.06"/><polygon class="cls-3" points="59.63 53.27 58.09 53.15 58.2 54.7 57.35 55.55 35.91 53.61 38.98 50.54 54.68 51.74 46.23 43.29 48.23 41.29 56.68 49.75 55.5 34.03 58.55 30.98 60.49 52.41 59.63 53.27"/></svg>