<svg id="Layer_1" data-name="Layer 1" xmlns="http://www.w3.org/2000/svg" xmlns:xlink="http://www.w3.org/1999/xlink" viewBox="0 0 122.5 113"><defs><style>.cls-1,.cls-4{fill:#dfeaf7;}.cls-1{opacity:0.54;}.cls-2{fill:#ffeacf;}.cls-3{fill:url(#linear-gradient);}</style><linearGradient id="linear-gradient" x1="61.25" y1="81.5" x2="61.25" y2="31.5" gradientUnits="userSpaceOnUse"><stop offset="0" stop-color="#f89a3c"/><stop offset="0.08" stop-color="#f68b34"/><stop offset="0.21" stop-color="#f2782a"/><stop offset="0.35" stop-color="#f16d24"/><stop offset="0.5" stop-color="#f06922"/><stop offset="1" stop-color="#eb5a48"/></linearGradient></defs><title>weather</title><circle class="cls-1" cx="61.25" cy="56.5" r="45"/><circle class="cls-2" cx="61.25" cy="56.5" r="35"/><circle class="cls-3" cx="61.25" cy="56.5" r="25"/><path class="cls-4" d="M96.42,78.05A10.46,10.46,0,0,0,86,67.59H85.7A11.37,11.37,0,0,0,63.22,70c0,0.09,0,.17,0,0.26a9.23,9.23,0,0,0-11.4,9v2a4,4,0,0,0,4,4H90.75a5.67,5.67,0,0,0,5.67-5.67V79.25H96.34A10.53,10.53,0,0,0,96.42,78.05Z"/><path class="cls-4" d="M24.83,63.7a6.65,6.65,0,0,1,6.65-6.65h0.16a7.23,7.23,0,0,1,14.29,1.51c0,0.06,0,.11,0,0.16a5.87,5.87,0,0,1,7.24,5.72v1.26a2.52,2.52,0,0,1-2.52,2.52H28.44a3.6,3.6,0,0,1-3.6-3.6V64.46h0A6.69,6.69,0,0,1,24.83,63.7Z"/></svg>