<svg id="Layer_1" data-name="Layer 1" xmlns="http://www.w3.org/2000/svg" viewBox="0 0 122.5 113"><defs><style>.cls-1,.cls-3{fill:#dfeaf7;}.cls-1{opacity:0.54;}.cls-2{fill:#bdcddb;}.cls-4{fill:#add9f4;}</style></defs><title>weather</title><circle class="cls-1" cx="61.25" cy="56.5" r="45"/><circle class="cls-2" cx="61.25" cy="56.5" r="35"/><path class="cls-3" d="M90.85,56.87A13.89,13.89,0,0,0,77,43l-0.34,0a15.1,15.1,0,0,0-29.86,3.17c0,0.12,0,.23,0,0.34a12.26,12.26,0,0,0-15.14,12v2.63a5.27,5.27,0,0,0,5.27,5.27h46.4a7.53,7.53,0,0,0,7.53-7.53V58.46h-0.1A14,14,0,0,0,90.85,56.87Z"/><path class="cls-4" d="M67.44,68.42s-4.85,4-4.85,8.47a4.85,4.85,0,0,0,9.69,0C72.29,72.46,67.44,68.42,67.44,68.42Z"/><path class="cls-4" d="M54,64.43l0.58,0,0,0.58,0.32,0.32,8-.72-1.14-1.14-5.87.44L59,60.68l-0.75-.75-3.18,3.18,0.45-5.86-1.15-1.15-0.72,8Zm1.1-.51H55V63.87Z"/><polygon class="cls-4" points="52.76 66.75 52.18 66.8 52.23 66.22 51.91 65.9 43.91 66.63 45.06 67.77 50.91 67.32 47.76 70.48 48.51 71.22 51.66 68.07 51.22 73.94 52.36 75.07 53.08 67.07 52.76 66.75"/><polygon class="cls-4" points="54.59 66.13 54.64 66.71 54.06 66.66 53.74 66.98 54.46 74.98 55.61 73.83 55.16 67.98 58.31 71.13 59.06 70.38 55.91 67.23 61.77 67.67 62.91 66.53 54.91 65.81 54.59 66.13"/><polygon class="cls-4" points="52.8 64.34 52.23 64.3 52.27 64.88 51.95 65.19 43.95 64.47 45.1 63.32 50.96 63.77 47.8 60.62 48.55 59.87 51.71 63.03 51.26 57.16 52.4 56.02 53.13 64.02 52.8 64.34"/></svg>