<svg id="Layer_1" data-name="Layer 1" xmlns="http://www.w3.org/2000/svg" viewBox="0 0 122.5 113"><defs><style>.cls-1,.cls-3{fill:#dfeaf7;}.cls-1{opacity:0.54;}.cls-2{fill:#bdcddb;}.cls-4{fill:#fdf6a7;}</style></defs><title>weather</title><circle class="cls-1" cx="61.25" cy="56.5" r="45"/><circle class="cls-2" cx="61.25" cy="56.5" r="35"/><path class="cls-3" d="M90.85,56.87A13.89,13.89,0,0,0,77,43l-0.34,0a15.1,15.1,0,0,0-29.86,3.17c0,0.12,0,.23,0,0.34a12.26,12.26,0,0,0-15.14,12v2.63a5.27,5.27,0,0,0,5.27,5.27h46.4a7.53,7.53,0,0,0,7.53-7.53V58.46h-0.1A14,14,0,0,0,90.85,56.87Z"/><polygon class="cls-4" points="65.75 66.4 60.92 66.4 60.92 52.92 48.02 72.69 52.85 72.69 52.85 86.17 65.75 66.4"/></svg>